<?xml version="1.0" encoding="UTF-8"?>
<svg xmlns="http://www.w3.org/2000/svg" width="105" height="85" viewBox="0 0 105 85" fill="none">
  <path d="M101.179 81.3574V81.7654H100.071V84.7083H99.6331V81.7654H98.4956V81.3574H101.179Z" fill="#003478"></path>
  <path d="M101.821 81.3574H102.462L103.425 84.1547L104.358 81.3574H105V84.6791H104.562V82.7269C104.562 82.6686 104.562 82.0567 104.562 81.8819L103.6 84.6791H103.162L102.2 81.8819L102.229 82.7269V84.6791H101.792V81.3574H101.821Z" fill="#003478"></path>
  <path d="M6.24166 81.1539H3.73333V65.7692H5.57083C9.94583 65.7692 11.3167 66.1188 12.9792 67.6922C14.4667 69.0909 15.2833 71.1014 15.2833 73.3741C15.2833 76.4336 13.8542 79.056 11.55 80.1924C10.15 80.9208 8.86666 81.1539 6.24166 81.1539ZM12.1625 63.1468C10.1792 62.5057 8.51666 62.3018 4.4625 62.3018H0V84.6796H4.49166C9.77083 84.6796 10.8792 84.5339 13.0958 83.4849C14.4667 82.8439 15.7208 81.7949 16.7417 80.4837C18.2292 78.5606 19.075 76.0257 19.075 73.5489C19.075 68.8869 16.1875 64.5162 12.1625 63.1468Z" fill="#003478"></path>
  <path d="M30.5669 76.8996V80.8623C29.0211 81.649 27.7961 82.0278 26.7461 82.0278C25.4628 82.0278 24.6461 81.3285 24.6461 80.2213C24.6461 78.6187 26.2794 77.8611 27.6503 77.4823C28.5836 77.2201 29.0794 77.1035 30.5669 76.8996ZM31.9086 69.0324C30.9169 68.3331 29.6044 67.9834 27.8544 67.9834C26.6586 67.9834 25.3169 68.1582 24.2669 68.4787C23.9169 68.5953 23.4794 68.7701 22.8961 69.0032L22.8086 69.0324L21.7294 73.2865L22.5753 72.7911C24.6169 71.5965 25.8419 71.1886 27.4461 71.1886C29.6628 71.1886 30.5378 72.0044 30.5669 74.1023L30.0419 74.1315C26.8336 74.3354 24.7919 74.9182 23.1878 76.142C21.9044 77.1035 21.0586 78.7352 21.0586 80.3087C21.0586 83.0185 23.2169 84.9999 26.1628 84.9999C27.5336 84.9999 29.0503 84.5919 30.1878 83.9509C30.2753 83.8926 30.3919 83.8052 30.5378 83.7178V84.6794H34.0961V75.6175C34.0961 72.0918 33.9502 71.4799 32.9003 70.023C32.6086 69.6151 32.2586 69.2946 31.9086 69.0324Z" fill="#003478"></path>
  <path d="M60.4043 69.8777C59.1793 68.6248 57.4585 67.9255 55.5335 67.9255C54.046 67.9255 52.471 68.3917 51.246 69.2075C51.0127 69.3532 50.6919 69.6155 50.2835 69.936C49.321 68.9744 48.796 68.6248 47.6877 68.246C47.0169 67.9837 46.2877 67.8672 45.471 67.8672C44.2752 67.8672 42.9044 68.2168 41.8835 68.8287C41.8252 68.887 41.7377 68.9453 41.6502 69.0036C41.5919 69.0618 41.5044 69.1201 41.4169 69.1784V68.3043H37.8877V84.6506H41.4169V72.6749C42.6419 71.8299 43.6335 71.5094 44.8294 71.5094C46.4919 71.5094 47.6877 72.3253 47.9794 73.6656C48.1252 74.3358 48.1252 74.6854 48.1252 76.492V84.7088H51.6835V76.5211L51.7127 75.0934C51.7127 73.9861 51.6835 73.6947 51.4502 72.8789C51.5085 72.8206 51.6252 72.7041 51.8877 72.5292C53.0252 71.8008 53.7835 71.5386 54.8627 71.5386C56.6418 71.5386 57.9252 72.4418 58.2168 73.8696C58.3335 74.4815 58.3627 75.0642 58.3627 76.4046V84.7088H61.9793V76.4046C61.9793 73.6656 61.921 73.0246 61.5418 71.8882C61.3668 71.0723 60.9585 70.4022 60.4043 69.8777Z" fill="#003478"></path>
  <path d="M74.3747 76.8996V80.8623C72.8288 81.649 71.6038 82.0278 70.5538 82.0278C69.2705 82.0278 68.4538 81.3285 68.4538 80.2213C68.4538 78.6187 70.0872 77.8611 71.458 77.4823C72.3913 77.2201 72.858 77.1035 74.3747 76.8996ZM75.7163 69.0324C74.7247 68.3331 73.4122 67.9834 71.6622 67.9834C70.4663 67.9834 69.1247 68.1582 68.0747 68.4787C67.7247 68.5953 67.2872 68.7701 66.7038 69.0032L66.6163 69.0324L65.5372 73.2865L66.383 72.7911C68.4247 71.5965 69.6497 71.1886 71.2538 71.1886C73.4705 71.1886 74.3455 72.0044 74.3747 74.1023L73.8497 74.1315C70.6413 74.3354 68.5997 74.9182 67.0247 76.142C65.7413 77.1035 64.8955 78.7352 64.8955 80.3087C64.8955 83.0185 67.0538 84.9999 69.9997 84.9999C71.3705 84.9999 72.8872 84.5919 74.0247 83.9509C74.1122 83.8926 74.2288 83.8052 74.3747 83.7178V84.6794H77.933V75.6175C77.933 72.0918 77.8163 71.4799 76.7372 70.023C76.4163 69.6151 76.0663 69.2946 75.7163 69.0324Z" fill="#003478"></path>
  <path d="M89.3955 67.9834C87.908 67.9834 86.7705 68.3039 85.4872 69.0615V68.3622H81.958V84.7376H85.4872V72.4998C86.2163 71.8296 87.5288 71.3925 88.783 71.3925C90.3288 71.3925 91.7872 72.1792 92.1955 73.2573C92.4288 73.8692 92.5747 74.8891 92.5747 75.7341V84.7085H96.1913V75.8506C96.1913 70.7515 93.7705 67.9834 89.3955 67.9834Z" fill="#003478"></path>
  <path d="M19.6875 38.6709V46.1302C19.6875 50.5591 16.1 54.1722 11.6667 54.1722C7.23333 54.1722 3.64583 50.5591 3.64583 46.1302C3.64583 44.4402 4.17083 42.8667 5.075 41.5555H0.933333C0.320833 42.9542 0 44.4985 0 46.1302C0 52.5696 5.22083 57.8144 11.6375 57.8144C18.0542 57.8144 23.275 52.5696 23.275 46.1302V38.6709H19.6875Z" fill="#003478"></path>
  <path d="M13.7374 36.5151C13.7374 35.3787 12.804 34.4463 11.6665 34.4463C10.529 34.4463 9.5957 35.3787 9.5957 36.5151C9.5957 37.6514 10.529 38.5839 11.6665 38.5839C12.804 38.5839 13.7374 37.6514 13.7374 36.5151Z" fill="#003478"></path>
  <path d="M86.129 34.7084C86.129 33.5721 85.1956 32.6396 84.0581 32.6396C82.9206 32.6396 81.9873 33.5721 81.9873 34.7084C81.9873 35.8448 82.9206 36.7772 84.0581 36.7772C85.1956 36.8064 86.129 35.8739 86.129 34.7084Z" fill="#003478"></path>
  <path d="M86.1002 51.4044H76.3877C79.946 42.5756 86.3335 42.3134 87.0919 42.3134C90.7085 42.3134 92.546 43.8577 92.546 46.8589C92.546 49.8601 90.3877 51.4044 86.1002 51.4044ZM48.8544 54.1725C46.5211 54.1725 44.6252 51.8706 44.5961 49.0442V48.8403C44.6836 46.1013 46.5502 43.8868 48.8252 43.8868C51.1002 43.8868 52.9669 46.1013 53.0544 48.8403V49.0734C53.0836 51.8997 51.1877 54.1725 48.8544 54.1725ZM87.0919 38.6712C86.0127 38.6712 76.7669 39.05 72.5086 51.4044H72.4211C71.8086 51.4044 69.7669 51.2296 69.7669 48.8403V42.9544L66.0336 45.5477V48.8403C66.0336 51.2004 63.9919 51.4044 63.3794 51.4044H59.3544C58.7419 51.4044 56.8169 51.2296 56.7002 49.0442C56.7002 44.2073 53.1711 40.2737 48.8252 40.2737C44.4794 40.2737 40.9502 44.2073 40.9502 49.0442C40.8336 51.2296 38.9086 51.4044 38.2961 51.4044H32.5794C31.9669 51.4044 29.9253 51.2296 29.9253 48.8403V32.6396H26.3086V48.8403C26.3086 52.8904 29.4586 55.0175 32.5794 55.0175H38.2961C39.6961 55.0175 41.0669 54.6095 42.2044 53.7645C43.6044 56.183 46.0544 57.7856 48.8252 57.7856C51.5961 57.7856 54.0461 56.183 55.4461 53.7645C56.4961 54.5513 57.8086 54.9592 59.1211 55.0175H63.3502C65.0127 55.0175 66.6752 54.4056 67.8711 53.2401C69.0086 54.3473 70.5544 54.9301 72.1294 54.9883H86.071C92.371 54.9883 96.1335 51.9289 96.1335 46.8006C96.1919 41.8181 92.6919 38.6712 87.0919 38.6712Z" fill="#003478"></path>
  <path d="M0.0290457 2.83104C-0.00056733 2.80153 -0.00056733 2.91955 0.0290457 2.83104V2.83104Z" fill="#003478"></path>
  <path d="M35.6126 13.9622C25.4626 4.63815 15.371 -4.88991 0.0292969 2.83161C15.6043 -4.16146 24.0918 8.19296 34.1543 17.4296C44.2168 26.6955 55.4168 32.2025 70.6417 24.5684C53.6084 31.4449 45.5876 23.1115 35.6126 13.9622Z" fill="#003478"></path>
  <path d="M71.7496 7.34863C71.7204 14.3126 67.4913 20.5772 60.9288 22.5003C54.3663 24.4234 47.4246 21.4222 43.6621 15.5946C46.8996 22.5294 54.3954 26.3756 61.4538 24.3068C68.5121 22.238 72.7704 14.9245 71.7496 7.34863Z" fill="#003478"></path>
  <path d="M57.8373 3.56017C56.3206 3.47275 54.8623 3.82241 53.579 4.4343C54.1623 4.31775 54.7748 4.25947 55.3873 4.28861C59.3248 4.46344 62.3581 7.81428 62.1831 11.7479C62.0081 15.6815 58.6831 18.741 54.7456 18.5661C52.1206 18.4496 49.8748 16.9053 48.7373 14.7199C49.6706 18.5079 52.9665 21.3925 57.0498 21.5673C62.0081 21.8004 66.179 17.9542 66.4123 12.9717C66.6165 7.98911 62.7956 3.76413 57.8373 3.56017Z" fill="#882345"></path>
</svg>
